<svg width="51" height="50" viewBox="0 0 51 50" fill="none" xmlns="http://www.w3.org/2000/svg">
<rect x="0.374237" width="50" height="50" fill="url(#paint0_linear_165_115)"/>
<path d="M17.6602 34.162C16.2382 34.162 14.9242 33.928 13.7182 33.46C12.5122 32.974 11.4682 32.299 10.5862 31.435C9.70424 30.571 9.01124 29.554 8.50724 28.384C8.02124 27.214 7.77824 25.936 7.77824 24.55C7.77824 23.164 8.02124 21.886 8.50724 20.716C9.01124 19.546 9.70424 18.529 10.5862 17.665C11.4862 16.801 12.5392 16.135 13.7452 15.667C14.9512 15.181 16.2652 14.938 17.6872 14.938C19.0552 14.938 20.3422 15.172 21.5482 15.64C22.7542 16.09 23.7712 16.774 24.5992 17.692L23.3302 18.961C22.5562 18.169 21.7012 17.602 20.7652 17.26C19.8292 16.9 18.8212 16.72 17.7412 16.72C16.6072 16.72 15.5542 16.918 14.5822 17.314C13.6102 17.692 12.7642 18.241 12.0442 18.961C11.3242 19.663 10.7572 20.491 10.3432 21.445C9.94724 22.381 9.74924 23.416 9.74924 24.55C9.74924 25.684 9.94724 26.728 10.3432 27.682C10.7572 28.618 11.3242 29.446 12.0442 30.166C12.7642 30.868 13.6102 31.417 14.5822 31.813C15.5542 32.191 16.6072 32.38 17.7412 32.38C18.8212 32.38 19.8292 32.2 20.7652 31.84C21.7012 31.48 22.5562 30.904 23.3302 30.112L24.5992 31.381C23.7712 32.299 22.7542 32.992 21.5482 33.46C20.3422 33.928 19.0462 34.162 17.6602 34.162ZM28.8585 34V15.1H35.9325C37.5345 15.1 38.9115 15.361 40.0635 15.883C41.2155 16.387 42.0975 17.125 42.7095 18.097C43.3395 19.051 43.6545 20.212 43.6545 21.58C43.6545 22.912 43.3395 24.064 42.7095 25.036C42.0975 25.99 41.2155 26.728 40.0635 27.25C38.9115 27.772 37.5345 28.033 35.9325 28.033H29.9655L30.8565 27.088V34H28.8585ZM30.8565 27.25L29.9655 26.278H35.8785C37.7685 26.278 39.1995 25.873 40.1715 25.063C41.1615 24.235 41.6565 23.074 41.6565 21.58C41.6565 20.068 41.1615 18.898 40.1715 18.07C39.1995 17.242 37.7685 16.828 35.8785 16.828H29.9655L30.8565 15.883V27.25Z" fill="white"/>
<defs>
<linearGradient id="paint0_linear_165_115" x1="25.3742" y1="0" x2="25.3742" y2="50" gradientUnits="userSpaceOnUse">
<stop stop-color="#245194"/>
<stop offset="1" stop-color="#1E69D9"/>
</linearGradient>
</defs>
</svg>
