<svg xmlns="http://www.w3.org/2000/svg" xmlns:xlink="http://www.w3.org/1999/xlink"><symbol fill="none" id="sprite-arrow" viewBox="0 0 17 10">
<path d="M16.3944 1.04774C16.133 0.794736 15.7089 0.794736 15.4475 1.04774L8.59083 8.29226L1.73349 1.04774C1.47208 0.794736 1.04792 0.794736 0.786513 1.04774C0.525101 1.30074 0.525101 1.71108 0.786513 1.96405L8.08332 9.67342C8.2227 9.80827 8.40808 9.86605 8.59015 9.85709C8.77284 9.86605 8.9576 9.80827 9.09697 9.67342L16.3944 1.96337C16.6558 1.71042 16.6558 1.30074 16.3944 1.04774Z" fill="url(#paint0_linear_148_118)"/>
<defs>
<linearGradient id="paint0_linear_148_118" x1="8.59046" y1="9.56034" x2="8.59046" y2="0.857987" gradientUnits="userSpaceOnUse">
<stop stop-color="#245194"/>
<stop offset="1" stop-color="#1E69D9"/>
</linearGradient>
</defs>
</symbol><use xlink:href="#sprite-arrow" width="17" height="10" y="0"/><view id="sprite-arrow-view" viewBox="0 0 17 10"/><symbol fill="none" id="sprite-filter" viewBox="0 0 23 22">
<path d="M6.83499 0.450012C5.54277 0.450012 4.44439 1.39817 4.08903 2.69749H1.14923C0.696956 2.69749 0.373901 3.08377 0.373901 3.57541C0.373901 4.06704 0.729261 4.45333 1.18154 4.45333H4.12133C4.44439 5.75265 5.57508 6.70081 6.86729 6.70081C8.19182 6.70081 9.2902 5.75265 9.64556 4.45333H21.5663C22.0185 4.45333 22.3739 4.06704 22.3739 3.57541C22.3739 3.08377 22.0185 2.69749 21.5663 2.69749H9.64556C9.2579 1.39817 8.15951 0.450012 6.83499 0.450012ZM6.86729 2.20585C7.54571 2.20585 8.12721 2.80284 8.12721 3.57541C8.12721 4.34798 7.54571 4.94496 6.86729 4.94496C6.18888 4.94496 5.60738 4.34798 5.60738 3.57541C5.60738 2.80284 6.18888 2.20585 6.86729 2.20585Z" fill="white"/>
<path d="M16.5589 7.47339C15.2667 7.47339 14.1683 8.42155 13.813 9.72089H1.18154C0.696956 9.72089 0.373901 10.1072 0.373901 10.5988C0.373901 11.0905 0.729261 11.4767 1.18154 11.4767H13.813C14.136 12.7761 15.2667 13.7242 16.5589 13.7242C17.8834 13.7242 18.9818 12.7761 19.3372 11.4767H21.5663C22.0185 11.4767 22.3739 11.0905 22.3739 10.5988C22.3739 10.1072 22.0185 9.72089 21.5663 9.72089H19.3372C18.9818 8.42155 17.8834 7.47339 16.5589 7.47339ZM16.5912 9.22925C17.2696 9.22925 17.8511 9.82624 17.8511 10.5988C17.8511 11.3714 17.2696 11.9684 16.5912 11.9684C15.9128 11.9684 15.3313 11.3714 15.3313 10.5988C15.3313 9.82624 15.8805 9.22925 16.5912 9.22925Z" fill="white"/>
<path d="M10.7116 15.1991C9.41942 15.1991 8.32104 16.1473 7.96568 17.4466H1.18154C0.696956 17.4466 0.373901 17.8329 0.373901 18.3245C0.373901 18.8162 0.729261 19.2025 1.18154 19.2025H7.99798C8.32104 20.5018 9.45173 21.45 10.7439 21.45C12.0685 21.45 13.1669 20.5018 13.5222 19.2025H21.5663C22.0185 19.2025 22.3739 18.8162 22.3739 18.3245C22.3739 17.8329 22.0185 17.4466 21.5663 17.4466H13.4899C13.1345 16.1473 12.0362 15.1991 10.7116 15.1991ZM10.7439 16.955C11.4224 16.955 12.0039 17.5519 12.0039 18.3245C12.0039 19.0971 11.4224 19.6941 10.7439 19.6941C10.0655 19.6941 9.48403 19.0971 9.48403 18.3245C9.51634 17.5519 10.0655 16.955 10.7439 16.955Z" fill="white"/>
</symbol><use xlink:href="#sprite-filter" width="23" height="22" y="10"/><view id="sprite-filter-view" viewBox="0 10 23 22"/><symbol fill="none" id="sprite-letter" viewBox="0 0 25 21">
<path d="M21.344 0.121445H3.05209C1.47387 0.12212 0.194684 1.73338 0.19397 3.72102V17.1616C0.194684 19.1493 1.47387 20.7607 3.05209 20.7612H21.344C22.9222 20.7607 24.2014 19.1493 24.2021 17.1616V3.72102C24.2014 1.73338 22.9222 0.12212 21.344 0.121445ZM3.05209 1.56128H21.344C22.1673 1.56397 22.8738 2.29986 23.0303 3.31764L12.1981 10.9202L1.3658 3.31764C1.52228 2.29986 2.22877 1.56397 3.05209 1.56128ZM21.344 19.3144H3.05209C2.10623 19.3108 1.3399 18.3459 1.33722 17.1546V4.94488L11.918 12.3742C12.0037 12.4336 12.1 12.466 12.1981 12.468C12.2965 12.4693 12.3931 12.4369 12.4782 12.3742L23.0589 4.94488V17.1546C23.0582 18.347 22.2908 19.3133 21.344 19.3144Z" fill="white"/>
</symbol><use xlink:href="#sprite-letter" width="25" height="21" y="32"/><view id="sprite-letter-view" viewBox="0 32 25 21"/><symbol fill="none" id="sprite-logo" viewBox="0 0 51 50">
<rect x="0.374237" width="50" height="50" fill="url(#paint0_linear_165_115)"/>
<path d="M17.6602 34.162C16.2382 34.162 14.9242 33.928 13.7182 33.46C12.5122 32.974 11.4682 32.299 10.5862 31.435C9.70424 30.571 9.01124 29.554 8.50724 28.384C8.02124 27.214 7.77824 25.936 7.77824 24.55C7.77824 23.164 8.02124 21.886 8.50724 20.716C9.01124 19.546 9.70424 18.529 10.5862 17.665C11.4862 16.801 12.5392 16.135 13.7452 15.667C14.9512 15.181 16.2652 14.938 17.6872 14.938C19.0552 14.938 20.3422 15.172 21.5482 15.64C22.7542 16.09 23.7712 16.774 24.5992 17.692L23.3302 18.961C22.5562 18.169 21.7012 17.602 20.7652 17.26C19.8292 16.9 18.8212 16.72 17.7412 16.72C16.6072 16.72 15.5542 16.918 14.5822 17.314C13.6102 17.692 12.7642 18.241 12.0442 18.961C11.3242 19.663 10.7572 20.491 10.3432 21.445C9.94724 22.381 9.74924 23.416 9.74924 24.55C9.74924 25.684 9.94724 26.728 10.3432 27.682C10.7572 28.618 11.3242 29.446 12.0442 30.166C12.7642 30.868 13.6102 31.417 14.5822 31.813C15.5542 32.191 16.6072 32.38 17.7412 32.38C18.8212 32.38 19.8292 32.2 20.7652 31.84C21.7012 31.48 22.5562 30.904 23.3302 30.112L24.5992 31.381C23.7712 32.299 22.7542 32.992 21.5482 33.46C20.3422 33.928 19.0462 34.162 17.6602 34.162ZM28.8585 34V15.1H35.9325C37.5345 15.1 38.9115 15.361 40.0635 15.883C41.2155 16.387 42.0975 17.125 42.7095 18.097C43.3395 19.051 43.6545 20.212 43.6545 21.58C43.6545 22.912 43.3395 24.064 42.7095 25.036C42.0975 25.99 41.2155 26.728 40.0635 27.25C38.9115 27.772 37.5345 28.033 35.9325 28.033H29.9655L30.8565 27.088V34H28.8585ZM30.8565 27.25L29.9655 26.278H35.8785C37.7685 26.278 39.1995 25.873 40.1715 25.063C41.1615 24.235 41.6565 23.074 41.6565 21.58C41.6565 20.068 41.1615 18.898 40.1715 18.07C39.1995 17.242 37.7685 16.828 35.8785 16.828H29.9655L30.8565 15.883V27.25Z" fill="white"/>
<defs>
<linearGradient id="paint0_linear_165_115" x1="25.3742" y1="0" x2="25.3742" y2="50" gradientUnits="userSpaceOnUse">
<stop stop-color="#245194"/>
<stop offset="1" stop-color="#1E69D9"/>
</linearGradient>
</defs>
</symbol><use xlink:href="#sprite-logo" width="51" height="50" y="53"/><view id="sprite-logo-view" viewBox="0 53 51 50"/><symbol fill="none" id="sprite-profile" viewBox="0 0 21 21">
<path d="M3.41175 3.30326C5.27058 1.266 7.84251 0.116271 10.5295 0.121462C15.9596 0.114281 20.3672 4.73054 20.374 10.4322C20.3774 13.2515 19.2825 15.9495 17.3437 17.8999C17.3381 17.9058 17.336 17.9147 17.3304 17.9199C17.2734 17.9774 17.2116 18.0262 17.1539 18.0816C16.9957 18.2292 16.8375 18.3821 16.6708 18.5246C16.5815 18.5984 16.4887 18.6722 16.3973 18.7401C16.2398 18.8634 16.0823 18.9867 15.9178 19.1004C15.8059 19.1743 15.6906 19.2481 15.576 19.3219C15.4242 19.4179 15.273 19.5146 15.1162 19.6025C14.9833 19.6763 14.8476 19.7398 14.7126 19.807C14.5649 19.8808 14.4193 19.9546 14.2682 20.0211C14.117 20.0875 13.9651 20.1392 13.8118 20.1968C13.6586 20.2544 13.5264 20.3075 13.3794 20.3548C13.2135 20.4072 13.0433 20.4478 12.8745 20.4913C12.7339 20.5275 12.5975 20.5689 12.4526 20.5984C12.2586 20.639 12.0617 20.6649 11.8648 20.6929C11.7431 20.7107 11.6243 20.7358 11.5013 20.7483C11.1792 20.7815 10.8544 20.8 10.5267 20.8C10.1991 20.8 9.87421 20.7815 9.55219 20.7483C9.42913 20.7358 9.31031 20.7107 9.18868 20.6929C8.99179 20.6649 8.79493 20.639 8.60084 20.5984C8.46022 20.5689 8.31956 20.5246 8.17895 20.4913C8.01019 20.4478 7.84003 20.4072 7.67408 20.3548C7.52712 20.3075 7.3851 20.25 7.24164 20.1968C7.09818 20.1436 6.93507 20.086 6.78531 20.0211C6.63554 19.9561 6.48858 19.88 6.34092 19.807C6.20591 19.7398 6.0702 19.6763 5.93732 19.6025C5.78052 19.5146 5.62935 19.4179 5.47745 19.3219C5.36283 19.2481 5.24751 19.1809 5.13573 19.1004C4.97118 18.9868 4.81367 18.8635 4.6562 18.7401C4.56478 18.6663 4.472 18.5998 4.38267 18.5246C4.21602 18.3843 4.05781 18.2351 3.8996 18.0816C3.84196 18.0262 3.78008 17.9775 3.7231 17.9199C3.7175 17.9147 3.71535 17.9059 3.70975 17.8999C-0.211443 13.9555 -0.344807 7.42038 3.41175 3.30326ZM4.99215 17.1269C5.12012 17.245 5.25233 17.3573 5.3859 17.4658C5.46463 17.5293 5.54341 17.592 5.62428 17.6526C5.75155 17.7493 5.88092 17.8409 6.01243 17.9287C6.10806 17.993 6.20578 18.055 6.30425 18.1155C6.42802 18.1894 6.55389 18.2632 6.68115 18.337C6.79367 18.3975 6.90829 18.4544 7.02357 18.5105C7.13885 18.5667 7.26616 18.6264 7.39062 18.6789C7.51509 18.7313 7.64726 18.7807 7.77737 18.8265C7.89619 18.8693 8.01501 18.9136 8.13528 18.9513C8.27589 18.9956 8.42285 19.0317 8.56841 19.0687C8.68233 19.0967 8.79481 19.1285 8.91013 19.1521C9.07678 19.1861 9.24694 19.2097 9.4178 19.2341C9.51482 19.2474 9.61115 19.2658 9.70892 19.2762C9.97895 19.3035 10.2525 19.3197 10.5288 19.3197C10.8051 19.3197 11.0787 19.3035 11.3487 19.2762C11.4464 19.2658 11.5427 19.2474 11.6398 19.2341C11.8107 19.2097 11.9808 19.1861 12.1475 19.1521C12.2628 19.1285 12.3753 19.0968 12.4892 19.0687C12.6348 19.0318 12.7796 18.9948 12.9223 18.9513C13.0426 18.9136 13.1614 18.8693 13.2802 18.8265C13.4103 18.7793 13.5404 18.7313 13.667 18.6789C13.7936 18.6264 13.9131 18.5689 14.034 18.5105C14.155 18.4522 14.264 18.3976 14.3765 18.337C14.5037 18.2676 14.6296 18.1945 14.7534 18.1155C14.8518 18.055 14.9495 17.993 15.0452 17.9287C15.1766 17.8409 15.3061 17.7493 15.4333 17.6526C15.5142 17.5921 15.5929 17.5293 15.6717 17.4658C15.8053 17.3573 15.9375 17.2443 16.0655 17.1269C16.0964 17.1026 16.1245 17.0715 16.1547 17.0435C16.1233 14.5319 14.5867 12.3142 12.3204 11.5098C11.1873 12.0758 9.8717 12.0758 8.73857 11.5098C6.47239 12.3142 4.93575 14.5319 4.90427 17.0435C4.93381 17.0715 4.96195 17.0996 4.99215 17.1269ZM12.9815 6.04111C12.2201 4.61941 10.5053 4.11495 9.15131 4.91436C7.79731 5.71376 7.31687 7.5143 8.07821 8.936C8.33081 9.40771 8.70203 9.79749 9.15131 10.0628C9.15482 10.0628 9.15906 10.0628 9.16326 10.0672C9.34974 10.1761 9.5468 10.2638 9.75111 10.3286C9.78765 10.3396 9.82144 10.3544 9.86008 10.364C9.93041 10.3832 10.0042 10.3965 10.0767 10.4098C10.213 10.4348 10.351 10.4493 10.4894 10.4533H10.5696C10.708 10.4493 10.846 10.4348 10.9823 10.4098C11.0527 10.3965 11.1272 10.3832 11.1989 10.364C11.2362 10.3544 11.2692 10.3396 11.3079 10.3286C11.5122 10.2638 11.7092 10.1762 11.8957 10.0672L11.9084 10.0628C13.2624 9.26335 13.7428 7.46282 12.9815 6.04111ZM3.65689 15.5794C4.10812 13.3696 5.49401 11.4961 7.42156 10.4903C5.84586 8.68804 5.95999 5.88576 7.67643 4.23128C9.39287 2.57679 12.0617 2.69662 13.6374 4.49888C15.1187 6.19322 15.1187 8.79601 13.6374 10.4903C15.565 11.4961 16.9509 13.3696 17.4021 15.5794C20.0984 11.5916 19.2053 6.06369 15.4074 3.23257C11.6094 0.401443 6.34475 1.33915 3.64845 5.32701C2.63488 6.82611 2.09079 8.6193 2.09165 10.4578C2.09165 12.2946 2.63896 14.0855 3.65689 15.5794Z" fill="white"/>
</symbol><use xlink:href="#sprite-profile" width="21" height="21" y="103"/><view id="sprite-profile-view" viewBox="0 103 21 21"/><symbol fill="none" id="sprite-search-filter" viewBox="0 0 23 22">
<path d="M6.83499 0.450012C5.54277 0.450012 4.44439 1.39817 4.08903 2.69749H1.14923C0.696956 2.69749 0.373901 3.08377 0.373901 3.57541C0.373901 4.06704 0.729261 4.45333 1.18154 4.45333H4.12133C4.44439 5.75265 5.57508 6.70081 6.86729 6.70081C8.19182 6.70081 9.2902 5.75265 9.64556 4.45333H21.5663C22.0185 4.45333 22.3739 4.06704 22.3739 3.57541C22.3739 3.08377 22.0185 2.69749 21.5663 2.69749H9.64556C9.2579 1.39817 8.15951 0.450012 6.83499 0.450012ZM6.86729 2.20585C7.54571 2.20585 8.12721 2.80284 8.12721 3.57541C8.12721 4.34798 7.54571 4.94496 6.86729 4.94496C6.18888 4.94496 5.60738 4.34798 5.60738 3.57541C5.60738 2.80284 6.18888 2.20585 6.86729 2.20585Z" fill="white"/>
<path d="M16.5589 7.47339C15.2667 7.47339 14.1683 8.42155 13.813 9.72089H1.18154C0.696956 9.72089 0.373901 10.1072 0.373901 10.5988C0.373901 11.0905 0.729261 11.4767 1.18154 11.4767H13.813C14.136 12.7761 15.2667 13.7242 16.5589 13.7242C17.8834 13.7242 18.9818 12.7761 19.3372 11.4767H21.5663C22.0185 11.4767 22.3739 11.0905 22.3739 10.5988C22.3739 10.1072 22.0185 9.72089 21.5663 9.72089H19.3372C18.9818 8.42155 17.8834 7.47339 16.5589 7.47339ZM16.5912 9.22925C17.2696 9.22925 17.8511 9.82624 17.8511 10.5988C17.8511 11.3714 17.2696 11.9684 16.5912 11.9684C15.9128 11.9684 15.3313 11.3714 15.3313 10.5988C15.3313 9.82624 15.8805 9.22925 16.5912 9.22925Z" fill="white"/>
<path d="M10.7116 15.1991C9.41942 15.1991 8.32104 16.1473 7.96568 17.4466H1.18154C0.696956 17.4466 0.373901 17.8329 0.373901 18.3245C0.373901 18.8162 0.729261 19.2025 1.18154 19.2025H7.99798C8.32104 20.5018 9.45173 21.45 10.7439 21.45C12.0685 21.45 13.1669 20.5018 13.5222 19.2025H21.5663C22.0185 19.2025 22.3739 18.8162 22.3739 18.3245C22.3739 17.8329 22.0185 17.4466 21.5663 17.4466H13.4899C13.1345 16.1473 12.0362 15.1991 10.7116 15.1991ZM10.7439 16.955C11.4224 16.955 12.0039 17.5519 12.0039 18.3245C12.0039 19.0971 11.4224 19.6941 10.7439 19.6941C10.0655 19.6941 9.48403 19.0971 9.48403 18.3245C9.51634 17.5519 10.0655 16.955 10.7439 16.955Z" fill="white"/>
</symbol><use xlink:href="#sprite-search-filter" width="23" height="22" y="124"/><view id="sprite-search-filter-view" viewBox="0 124 23 22"/><symbol fill="none" id="sprite-search" viewBox="0 0 20 21">
<path d="M19.5941 19.4895L14.7725 14.4268C15.971 12.9135 16.693 10.9703 16.693 8.85293C16.693 4.03837 12.9627 0.121445 8.37763 0.121445C3.79244 0.121445 0.0621338 4.03837 0.0621338 8.85293C0.0621338 13.6672 3.79244 17.5838 8.37763 17.5838C10.3941 17.5838 12.2449 16.8257 13.6861 15.5673L18.5079 20.63C18.6578 20.7876 18.8545 20.8663 19.051 20.8663C19.2476 20.8663 19.4442 20.7876 19.5942 20.63C19.8942 20.3151 19.8942 19.8045 19.5941 19.4895ZM1.59842 8.85293C1.59842 4.92783 4.63954 1.73454 8.37763 1.73454C12.1156 1.73454 15.1566 4.92783 15.1566 8.85293C15.1566 12.7777 12.1156 15.9707 8.37763 15.9707C4.63954 15.9707 1.59842 12.7777 1.59842 8.85293Z" fill="white"/>
</symbol><use xlink:href="#sprite-search" width="20" height="21" y="146"/><view id="sprite-search-view" viewBox="0 146 20 21"/><symbol fill="none" id="sprite-slide1" viewBox="0 0 54 53">
<path d="M52.4908 51.2333H48.9029C48.9405 50.943 48.9575 50.6467 48.9575 50.35C48.9575 47.8567 47.5227 45.7344 45.4242 44.7517V15.0166C45.4242 14.4866 45.0709 14.1333 44.5409 14.1333H31.2909V0.883301C31.2909 0.3533 30.9376 2.27413e-08 30.4076 2.27413e-08H6.55754C6.02733 -0.000103493 5.67403 0.353196 5.67403 0.883197V51.2333H1.25732C0.727323 51.2333 0.374023 51.5866 0.374023 52.1166C0.374023 52.6466 0.727323 53 1.25732 53H6.55733H9.20734H30.4074H47.8091H52.4908C53.0208 53 53.3741 52.6467 53.3741 52.1167C53.3741 51.5867 53.0208 51.2333 52.4908 51.2333ZM43.6574 44.229C43.3691 44.1887 43.0745 44.1666 42.7741 44.1666C42.1073 44.1666 41.4531 44.2801 40.8351 44.4924C40.6812 44.2873 40.4331 44.1666 40.1241 44.1666C39.5941 44.1666 39.2408 44.5199 39.2408 45.0499V45.3206C38.906 45.5618 38.5948 45.8369 38.3123 46.1428C38.2677 46.19 38.2238 46.2378 38.1808 46.2865C37.4488 45.3715 36.506 44.7096 35.44 44.3874C35.2869 44.2469 35.0758 44.1665 34.8241 44.1665C34.7256 44.1665 34.6333 44.1788 34.5481 44.2021C34.3486 44.1788 34.1461 44.1665 33.9408 44.1665C33.3872 44.1665 32.7638 44.2383 32.2588 44.4434C32.1962 44.4645 32.1341 44.4862 32.0726 44.5095C31.4622 44.0133 30.7483 43.656 29.9959 43.4595C29.9879 43.4573 29.9798 43.4557 29.9719 43.4536C29.9063 43.4367 29.8404 43.4206 29.7743 43.4063C29.7207 43.3945 29.6664 43.3842 29.6123 43.3741C29.5888 43.3697 29.5653 43.3651 29.5417 43.361C29.4848 43.3512 29.4278 43.3425 29.3704 43.3345C29.3447 43.3309 29.319 43.3277 29.2932 43.3245C29.2405 43.318 29.1877 43.3118 29.1344 43.307C29.0956 43.3034 29.0567 43.3007 29.0178 43.2979C28.9762 43.295 28.9347 43.2916 28.8927 43.2896C28.8088 43.2856 28.7248 43.2831 28.6408 43.2831C28.5758 43.2831 28.5113 43.2844 28.4471 43.2868C28.4051 43.2882 28.3632 43.2908 28.3212 43.2932C28.3045 43.2943 28.2875 43.295 28.2707 43.2961C27.466 43.3495 26.6753 43.5766 25.9907 43.9789V15.8999H30.4074H43.6574V44.229ZM7.44074 1.7666H29.5241V14.1333H25.1074C24.5774 14.1333 24.2241 14.4866 24.2241 15.0166V42.4884C23.7726 42.0369 23.2523 41.6551 22.6857 41.3562C22.6357 41.3295 22.5852 41.3036 22.5345 41.2784C22.5145 41.2686 22.4947 41.2583 22.4747 41.2487C21.8442 40.9429 21.1582 40.7423 20.4414 40.6672C20.4314 40.6662 20.4212 40.6654 20.4111 40.6643C20.3278 40.656 20.2442 40.6495 20.1601 40.6447C20.1379 40.6433 20.1156 40.642 20.0933 40.6408C19.9983 40.6364 19.9031 40.6334 19.8074 40.6334C18.4927 40.6334 17.2747 41.0658 16.2741 41.7924V41.5168C16.2741 40.9868 15.9208 40.6335 15.3908 40.6335C14.8608 40.6335 14.5075 40.9868 14.5075 41.5168V43.2835C14.5075 43.416 14.5295 43.5374 14.5709 43.6451C14.1372 44.3598 13.8383 45.1656 13.7125 46.0219C12.6955 46.1381 11.7656 46.5041 10.9741 47.0512V46.8169C10.9741 46.2869 10.6208 45.9336 10.0908 45.9336C9.56085 45.9336 9.20755 46.2869 9.20755 46.8169V48.5836C9.20755 48.6867 9.22131 48.7829 9.24678 48.8713C8.8088 49.5796 8.51078 50.3812 8.38801 51.2335H7.44095V1.7666H7.44074ZM14.1054 47.7183C14.1229 47.7168 14.1406 47.7157 14.1582 47.7144C14.2048 47.7108 14.2514 47.7072 14.2984 47.7051C14.3676 47.702 14.4373 47.6999 14.5075 47.6999C15.0375 47.6999 15.3908 47.3466 15.3908 46.8166C15.3908 44.3433 17.3341 42.3999 19.8075 42.3999C22.0158 42.3999 23.8708 43.9899 24.1358 46.1982C24.1955 46.4371 24.3373 46.634 24.5313 46.7648C24.5435 46.7734 24.556 46.7815 24.5688 46.7895C24.5824 46.7978 24.596 46.8063 24.6102 46.814C24.6428 46.832 24.6767 46.8485 24.7121 46.8626C24.7135 46.8632 24.7147 46.8637 24.7161 46.8643C24.7566 46.8805 24.7988 46.894 24.8424 46.9049C24.8425 46.9049 24.8425 46.9049 24.8426 46.905C24.8952 46.9225 24.9549 46.9292 25.018 46.9272C25.3084 46.9315 25.5785 46.7727 25.7258 46.5519C25.7258 46.5518 25.7259 46.5518 25.726 46.5517L25.8143 46.4634C26.521 45.5801 27.4926 45.0501 28.641 45.0501C29.2374 45.0501 29.8336 45.2172 30.3687 45.5296C29.315 46.5203 28.7175 47.8119 28.648 49.1938C28.6434 49.2842 28.641 49.3753 28.641 49.4668C28.641 50.0811 28.7432 50.6698 28.9453 51.2335H10.179C10.5925 49.3316 12.167 47.8944 14.1054 47.7183ZM31.0306 51.2333C30.6932 50.6625 30.4958 49.9877 30.4958 49.3783C30.4958 48.4015 30.8809 47.5215 31.5427 46.8783C31.6692 46.761 31.8041 46.6527 31.9466 46.5547C32.0845 46.5557 32.2234 46.5269 32.3508 46.4633C34.2941 45.4033 36.5908 46.375 37.2975 48.3183C37.3858 48.5833 37.6508 48.8483 38.0925 48.8483C38.1763 48.8483 38.2691 48.8216 38.3623 48.7742C38.5839 48.7378 38.7591 48.5751 38.8875 48.3183C39.2298 47.5909 39.7598 47.0102 40.4049 46.603C40.5442 46.5642 40.6637 46.4955 40.7589 46.4022C41.3656 46.0973 42.0533 45.9333 42.7742 45.9333C45.2475 45.9333 47.1909 47.8766 47.1909 50.35C47.1909 50.615 47.1909 50.9683 47.1026 51.2333H31.0306Z" fill="url(#paint0_linear_168_15)"/>
<path d="M29.5241 22.9668C28.9941 22.9668 28.6408 23.3201 28.6408 23.8501V25.6168C28.6408 26.1468 28.9941 26.5001 29.5241 26.5001C30.0541 26.5001 30.4074 26.1468 30.4074 25.6168V23.8501C30.4074 23.3201 30.0541 22.9668 29.5241 22.9668Z" fill="url(#paint1_linear_168_15)"/>
<path d="M29.5241 38.8669C28.9941 38.8669 28.6408 39.2202 28.6408 39.7502V41.5169C28.6408 42.0469 28.9941 42.4002 29.5241 42.4002C30.0541 42.4002 30.4074 42.0469 30.4074 41.5169V39.7502C30.4074 39.2202 30.0541 38.8669 29.5241 38.8669Z" fill="url(#paint2_linear_168_15)"/>
<path d="M29.5241 28.2668C28.9941 28.2668 28.6408 28.6201 28.6408 29.1501V30.9169C28.6408 31.4469 28.9941 31.8002 29.5241 31.8002C30.0541 31.8002 30.4074 31.4469 30.4074 30.9169V29.1501C30.4074 28.6201 30.0541 28.2668 29.5241 28.2668Z" fill="url(#paint3_linear_168_15)"/>
<path d="M29.5241 33.5668C28.9941 33.5668 28.6408 33.9201 28.6408 34.4501V36.2168C28.6408 36.7468 28.9941 37.1001 29.5241 37.1001C30.0541 37.1001 30.4074 36.7468 30.4074 36.2168V34.4501C30.4074 33.9201 30.0541 33.5668 29.5241 33.5668Z" fill="url(#paint4_linear_168_15)"/>
<path d="M29.5241 17.6667C28.9941 17.6667 28.6408 18.02 28.6408 18.55V20.3168C28.6408 20.8468 28.9941 21.2001 29.5241 21.2001C30.0541 21.2001 30.4074 20.8468 30.4074 20.3168V18.55C30.4074 18.02 30.0541 17.6667 29.5241 17.6667Z" fill="url(#paint5_linear_168_15)"/>
<path d="M34.8241 26.5001C35.3541 26.5001 35.7074 26.1468 35.7074 25.6168V23.8501C35.7074 23.3201 35.3541 22.9668 34.8241 22.9668C34.2941 22.9668 33.9408 23.3201 33.9408 23.8501V25.6168C33.9408 26.1468 34.2941 26.5001 34.8241 26.5001Z" fill="url(#paint6_linear_168_15)"/>
<path d="M34.8241 21.2001C35.3541 21.2001 35.7074 20.8468 35.7074 20.3168V18.55C35.7074 18.02 35.3541 17.6667 34.8241 17.6667C34.2941 17.6667 33.9408 18.02 33.9408 18.55V20.3168C33.9408 20.8468 34.2941 21.2001 34.8241 21.2001Z" fill="url(#paint7_linear_168_15)"/>
<path d="M34.8241 31.8002C35.3541 31.8002 35.7074 31.4469 35.7074 30.9169V29.1501C35.7074 28.6201 35.3541 28.2668 34.8241 28.2668C34.2941 28.2668 33.9408 28.6201 33.9408 29.1501V30.9169C33.9408 31.4469 34.2941 31.8002 34.8241 31.8002Z" fill="url(#paint8_linear_168_15)"/>
<path d="M34.8241 37.1001C35.3541 37.1001 35.7074 36.7468 35.7074 36.2168V34.4501C35.7074 33.9201 35.3541 33.5668 34.8241 33.5668C34.2941 33.5668 33.9408 33.9201 33.9408 34.4501V36.2168C33.9408 36.7468 34.2941 37.1001 34.8241 37.1001Z" fill="url(#paint9_linear_168_15)"/>
<path d="M34.8241 42.4002C35.3541 42.4002 35.7074 42.0469 35.7074 41.5169V39.7502C35.7074 39.2202 35.3541 38.8669 34.8241 38.8669C34.2941 38.8669 33.9408 39.2202 33.9408 39.7502V41.5169C33.9408 42.0469 34.2941 42.4002 34.8241 42.4002Z" fill="url(#paint10_linear_168_15)"/>
<path d="M40.1241 31.8002C40.6541 31.8002 41.0074 31.4469 41.0074 30.9169V29.1501C41.0074 28.6201 40.6541 28.2668 40.1241 28.2668C39.5941 28.2668 39.2408 28.6201 39.2408 29.1501V30.9169C39.2408 31.4469 39.5941 31.8002 40.1241 31.8002Z" fill="url(#paint11_linear_168_15)"/>
<path d="M40.1241 26.5001C40.6541 26.5001 41.0074 26.1468 41.0074 25.6168V23.8501C41.0074 23.3201 40.6541 22.9668 40.1241 22.9668C39.5941 22.9668 39.2408 23.3201 39.2408 23.8501V25.6168C39.2408 26.1468 39.5941 26.5001 40.1241 26.5001Z" fill="url(#paint12_linear_168_15)"/>
<path d="M40.1241 42.4002C40.6541 42.4002 41.0074 42.0469 41.0074 41.5169V39.7502C41.0074 39.2202 40.6541 38.8669 40.1241 38.8669C39.5941 38.8669 39.2408 39.2202 39.2408 39.7502V41.5169C39.2408 42.0469 39.5941 42.4002 40.1241 42.4002Z" fill="url(#paint13_linear_168_15)"/>
<path d="M40.1241 37.1001C40.6541 37.1001 41.0074 36.7468 41.0074 36.2168V34.4501C41.0074 33.9201 40.6541 33.5668 40.1241 33.5668C39.5941 33.5668 39.2408 33.9201 39.2408 34.4501V36.2168C39.2408 36.7468 39.5941 37.1001 40.1241 37.1001Z" fill="url(#paint14_linear_168_15)"/>
<path d="M40.1241 21.2001C40.6541 21.2001 41.0074 20.8468 41.0074 20.3168V18.55C41.0074 18.02 40.6541 17.6667 40.1241 17.6667C39.5941 17.6667 39.2408 18.02 39.2408 18.55V20.3168C39.2408 20.8468 39.5941 21.2001 40.1241 21.2001Z" fill="url(#paint15_linear_168_15)"/>
<path d="M10.0908 33.5668C10.6208 33.5668 10.9741 33.2135 10.9741 32.6835V30.9168C10.9741 30.3868 10.6208 30.0335 10.0908 30.0335C9.56076 30.0335 9.20746 30.3868 9.20746 30.9168V32.6835C9.20736 33.2134 9.56076 33.5668 10.0908 33.5668Z" fill="url(#paint16_linear_168_15)"/>
<path d="M10.0908 38.8669C10.6208 38.8669 10.9741 38.5136 10.9741 37.9836V36.2169C10.9741 35.6869 10.6208 35.3336 10.0908 35.3336C9.56076 35.3336 9.20746 35.6869 9.20746 36.2169V37.9836C9.20736 38.5135 9.56076 38.8669 10.0908 38.8669Z" fill="url(#paint17_linear_168_15)"/>
<path d="M10.0908 44.1669C10.6208 44.1669 10.9741 43.8136 10.9741 43.2836V41.5169C10.9741 40.9869 10.6208 40.6336 10.0908 40.6336C9.56076 40.6336 9.20746 40.9869 9.20746 41.5169V43.2836C9.20736 43.8135 9.56076 44.1669 10.0908 44.1669Z" fill="url(#paint18_linear_168_15)"/>
<path d="M10.0908 7.06675C10.6208 7.06675 10.9741 6.71345 10.9741 6.18345V4.41675C10.9741 3.88675 10.6208 3.53345 10.0908 3.53345C9.56076 3.53345 9.20746 3.88675 9.20746 4.41675V6.18345C9.20736 6.71335 9.56076 7.06675 10.0908 7.06675Z" fill="url(#paint19_linear_168_15)"/>
<path d="M10.0908 12.3668C10.6208 12.3668 10.9741 12.0135 10.9741 11.4835V9.7168C10.9741 9.1868 10.6208 8.8335 10.0908 8.8335C9.56076 8.8335 9.20746 9.1868 9.20746 9.7168V11.4835C9.20736 12.0134 9.56076 12.3668 10.0908 12.3668Z" fill="url(#paint20_linear_168_15)"/>
<path d="M10.0908 17.6668C10.6208 17.6668 10.9741 17.3135 10.9741 16.7835V15.0168C10.9741 14.4868 10.6208 14.1335 10.0908 14.1335C9.56076 14.1335 9.20746 14.4868 9.20746 15.0168V16.7835C9.20736 17.3134 9.56076 17.6668 10.0908 17.6668Z" fill="url(#paint21_linear_168_15)"/>
<path d="M10.0908 22.9668C10.6208 22.9668 10.9741 22.6135 10.9741 22.0835V20.3168C10.9741 19.7868 10.6208 19.4335 10.0908 19.4335C9.56076 19.4335 9.20746 19.7868 9.20746 20.3168V22.0835C9.20736 22.6134 9.56076 22.9668 10.0908 22.9668Z" fill="url(#paint22_linear_168_15)"/>
<path d="M10.0908 28.2669C10.6208 28.2669 10.9741 27.9136 10.9741 27.3836V25.6169C10.9741 25.0869 10.6208 24.7336 10.0908 24.7336C9.56076 24.7336 9.20746 25.0869 9.20746 25.6169V27.3836C9.20736 27.9135 9.56076 28.2669 10.0908 28.2669Z" fill="url(#paint23_linear_168_15)"/>
<path d="M15.3907 12.3668C15.9207 12.3668 16.274 12.0135 16.274 11.4835V9.7168C16.274 9.1868 15.9207 8.8335 15.3907 8.8335C14.8607 8.8335 14.5074 9.1868 14.5074 9.7168V11.4835C14.5073 12.0134 14.8607 12.3668 15.3907 12.3668Z" fill="url(#paint24_linear_168_15)"/>
<path d="M15.3907 7.06675C15.9207 7.06675 16.274 6.71345 16.274 6.18345V4.41675C16.274 3.88675 15.9207 3.53345 15.3907 3.53345C14.8607 3.53345 14.5074 3.88675 14.5074 4.41675V6.18345C14.5073 6.71335 14.8607 7.06675 15.3907 7.06675Z" fill="url(#paint25_linear_168_15)"/>
<path d="M15.3907 22.9668C15.9207 22.9668 16.274 22.6135 16.274 22.0835V20.3168C16.274 19.7868 15.9207 19.4335 15.3907 19.4335C14.8607 19.4335 14.5074 19.7868 14.5074 20.3168V22.0835C14.5073 22.6134 14.8607 22.9668 15.3907 22.9668Z" fill="url(#paint26_linear_168_15)"/>
<path d="M15.3907 17.6668C15.9207 17.6668 16.274 17.3135 16.274 16.7835V15.0168C16.274 14.4868 15.9207 14.1335 15.3907 14.1335C14.8607 14.1335 14.5074 14.4868 14.5074 15.0168V16.7835C14.5073 17.3134 14.8607 17.6668 15.3907 17.6668Z" fill="url(#paint27_linear_168_15)"/>
<path d="M15.3907 28.2669C15.9207 28.2669 16.274 27.9136 16.274 27.3836V25.6169C16.274 25.0869 15.9207 24.7336 15.3907 24.7336C14.8607 24.7336 14.5074 25.0869 14.5074 25.6169V27.3836C14.5073 27.9135 14.8607 28.2669 15.3907 28.2669Z" fill="url(#paint28_linear_168_15)"/>
<path d="M15.3907 33.5668C15.9207 33.5668 16.274 33.2135 16.274 32.6835V30.9168C16.274 30.3868 15.9207 30.0335 15.3907 30.0335C14.8607 30.0335 14.5074 30.3868 14.5074 30.9168V32.6835C14.5073 33.2134 14.8607 33.5668 15.3907 33.5668Z" fill="url(#paint29_linear_168_15)"/>
<path d="M15.3907 38.8669C15.9207 38.8669 16.274 38.5136 16.274 37.9836V36.2169C16.274 35.6869 15.9207 35.3336 15.3907 35.3336C14.8607 35.3336 14.5074 35.6869 14.5074 36.2169V37.9836C14.5073 38.5135 14.8607 38.8669 15.3907 38.8669Z" fill="url(#paint30_linear_168_15)"/>
<path d="M20.6908 17.6668C21.2208 17.6668 21.5741 17.3135 21.5741 16.7835V15.0168C21.5741 14.4868 21.2208 14.1335 20.6908 14.1335C20.1608 14.1335 19.8075 14.4868 19.8075 15.0168V16.7835C19.8074 17.3134 20.1608 17.6668 20.6908 17.6668Z" fill="url(#paint31_linear_168_15)"/>
<path d="M20.6908 12.3668C21.2208 12.3668 21.5741 12.0135 21.5741 11.4835V9.7168C21.5741 9.1868 21.2208 8.8335 20.6908 8.8335C20.1608 8.8335 19.8075 9.1868 19.8075 9.7168V11.4835C19.8074 12.0134 20.1608 12.3668 20.6908 12.3668Z" fill="url(#paint32_linear_168_15)"/>
<path d="M20.6908 7.06675C21.2208 7.06675 21.5741 6.71345 21.5741 6.18345V4.41675C21.5741 3.88675 21.2208 3.53345 20.6908 3.53345C20.1608 3.53345 19.8075 3.88675 19.8075 4.41675V6.18345C19.8074 6.71335 20.1608 7.06675 20.6908 7.06675Z" fill="url(#paint33_linear_168_15)"/>
<path d="M20.6908 38.8669C21.2208 38.8669 21.5741 38.5136 21.5741 37.9836V36.2169C21.5741 35.6869 21.2208 35.3336 20.6908 35.3336C20.1608 35.3336 19.8075 35.6869 19.8075 36.2169V37.9836C19.8074 38.5135 20.1608 38.8669 20.6908 38.8669Z" fill="url(#paint34_linear_168_15)"/>
<path d="M20.6908 33.5668C21.2208 33.5668 21.5741 33.2135 21.5741 32.6835V30.9168C21.5741 30.3868 21.2208 30.0335 20.6908 30.0335C20.1608 30.0335 19.8075 30.3868 19.8075 30.9168V32.6835C19.8074 33.2134 20.1608 33.5668 20.6908 33.5668Z" fill="url(#paint35_linear_168_15)"/>
<path d="M20.6908 28.2669C21.2208 28.2669 21.5741 27.9136 21.5741 27.3836V25.6169C21.5741 25.0869 21.2208 24.7336 20.6908 24.7336C20.1608 24.7336 19.8075 25.0869 19.8075 25.6169V27.3836C19.8074 27.9135 20.1608 28.2669 20.6908 28.2669Z" fill="url(#paint36_linear_168_15)"/>
<path d="M20.6908 22.9668C21.2208 22.9668 21.5741 22.6135 21.5741 22.0835V20.3168C21.5741 19.7868 21.2208 19.4335 20.6908 19.4335C20.1608 19.4335 19.8075 19.7868 19.8075 20.3168V22.0835C19.8074 22.6134 20.1608 22.9668 20.6908 22.9668Z" fill="url(#paint37_linear_168_15)"/>
<path d="M25.9908 12.3668C26.5208 12.3668 26.8741 12.0135 26.8741 11.4835V9.7168C26.8741 9.1868 26.5208 8.8335 25.9908 8.8335C25.4608 8.8335 25.1075 9.1868 25.1075 9.7168V11.4835C25.1074 12.0134 25.4608 12.3668 25.9908 12.3668Z" fill="url(#paint38_linear_168_15)"/>
<path d="M25.9908 7.06675C26.5208 7.06675 26.8741 6.71345 26.8741 6.18345V4.41675C26.8741 3.88675 26.5208 3.53345 25.9908 3.53345C25.4608 3.53345 25.1075 3.88675 25.1075 4.41675V6.18345C25.1074 6.71335 25.4608 7.06675 25.9908 7.06675Z" fill="url(#paint39_linear_168_15)"/>
<defs>
<linearGradient id="paint0_linear_168_15" x1="26.8741" y1="0" x2="26.8741" y2="53" gradientUnits="userSpaceOnUse">
<stop stop-color="#175EC7"/>
<stop offset="1" stop-color="#0BC4FF"/>
</linearGradient>
<linearGradient id="paint1_linear_168_15" x1="29.5241" y1="22.9668" x2="29.5241" y2="26.5001" gradientUnits="userSpaceOnUse">
<stop stop-color="#175EC7"/>
<stop offset="1" stop-color="#0BC4FF"/>
</linearGradient>
<linearGradient id="paint2_linear_168_15" x1="29.5241" y1="38.8669" x2="29.5241" y2="42.4002" gradientUnits="userSpaceOnUse">
<stop stop-color="#175EC7"/>
<stop offset="1" stop-color="#0BC4FF"/>
</linearGradient>
<linearGradient id="paint3_linear_168_15" x1="29.5241" y1="28.2668" x2="29.5241" y2="31.8002" gradientUnits="userSpaceOnUse">
<stop stop-color="#175EC7"/>
<stop offset="1" stop-color="#0BC4FF"/>
</linearGradient>
<linearGradient id="paint4_linear_168_15" x1="29.5241" y1="33.5668" x2="29.5241" y2="37.1001" gradientUnits="userSpaceOnUse">
<stop stop-color="#175EC7"/>
<stop offset="1" stop-color="#0BC4FF"/>
</linearGradient>
<linearGradient id="paint5_linear_168_15" x1="29.5241" y1="17.6667" x2="29.5241" y2="21.2001" gradientUnits="userSpaceOnUse">
<stop stop-color="#175EC7"/>
<stop offset="1" stop-color="#0BC4FF"/>
</linearGradient>
<linearGradient id="paint6_linear_168_15" x1="34.8241" y1="22.9668" x2="34.8241" y2="26.5001" gradientUnits="userSpaceOnUse">
<stop stop-color="#175EC7"/>
<stop offset="1" stop-color="#0BC4FF"/>
</linearGradient>
<linearGradient id="paint7_linear_168_15" x1="34.8241" y1="17.6667" x2="34.8241" y2="21.2001" gradientUnits="userSpaceOnUse">
<stop stop-color="#175EC7"/>
<stop offset="1" stop-color="#0BC4FF"/>
</linearGradient>
<linearGradient id="paint8_linear_168_15" x1="34.8241" y1="28.2668" x2="34.8241" y2="31.8002" gradientUnits="userSpaceOnUse">
<stop stop-color="#175EC7"/>
<stop offset="1" stop-color="#0BC4FF"/>
</linearGradient>
<linearGradient id="paint9_linear_168_15" x1="34.8241" y1="33.5668" x2="34.8241" y2="37.1001" gradientUnits="userSpaceOnUse">
<stop stop-color="#175EC7"/>
<stop offset="1" stop-color="#0BC4FF"/>
</linearGradient>
<linearGradient id="paint10_linear_168_15" x1="34.8241" y1="38.8669" x2="34.8241" y2="42.4002" gradientUnits="userSpaceOnUse">
<stop stop-color="#175EC7"/>
<stop offset="1" stop-color="#0BC4FF"/>
</linearGradient>
<linearGradient id="paint11_linear_168_15" x1="40.1241" y1="28.2668" x2="40.1241" y2="31.8002" gradientUnits="userSpaceOnUse">
<stop stop-color="#175EC7"/>
<stop offset="1" stop-color="#0BC4FF"/>
</linearGradient>
<linearGradient id="paint12_linear_168_15" x1="40.1241" y1="22.9668" x2="40.1241" y2="26.5001" gradientUnits="userSpaceOnUse">
<stop stop-color="#175EC7"/>
<stop offset="1" stop-color="#0BC4FF"/>
</linearGradient>
<linearGradient id="paint13_linear_168_15" x1="40.1241" y1="38.8669" x2="40.1241" y2="42.4002" gradientUnits="userSpaceOnUse">
<stop stop-color="#175EC7"/>
<stop offset="1" stop-color="#0BC4FF"/>
</linearGradient>
<linearGradient id="paint14_linear_168_15" x1="40.1241" y1="33.5668" x2="40.1241" y2="37.1001" gradientUnits="userSpaceOnUse">
<stop stop-color="#175EC7"/>
<stop offset="1" stop-color="#0BC4FF"/>
</linearGradient>
<linearGradient id="paint15_linear_168_15" x1="40.1241" y1="17.6667" x2="40.1241" y2="21.2001" gradientUnits="userSpaceOnUse">
<stop stop-color="#175EC7"/>
<stop offset="1" stop-color="#0BC4FF"/>
</linearGradient>
<linearGradient id="paint16_linear_168_15" x1="10.0908" y1="30.0335" x2="10.0908" y2="33.5668" gradientUnits="userSpaceOnUse">
<stop stop-color="#175EC7"/>
<stop offset="1" stop-color="#0BC4FF"/>
</linearGradient>
<linearGradient id="paint17_linear_168_15" x1="10.0908" y1="35.3336" x2="10.0908" y2="38.8669" gradientUnits="userSpaceOnUse">
<stop stop-color="#175EC7"/>
<stop offset="1" stop-color="#0BC4FF"/>
</linearGradient>
<linearGradient id="paint18_linear_168_15" x1="10.0908" y1="40.6336" x2="10.0908" y2="44.1669" gradientUnits="userSpaceOnUse">
<stop stop-color="#175EC7"/>
<stop offset="1" stop-color="#0BC4FF"/>
</linearGradient>
<linearGradient id="paint19_linear_168_15" x1="10.0908" y1="3.53345" x2="10.0908" y2="7.06675" gradientUnits="userSpaceOnUse">
<stop stop-color="#175EC7"/>
<stop offset="1" stop-color="#0BC4FF"/>
</linearGradient>
<linearGradient id="paint20_linear_168_15" x1="10.0908" y1="8.8335" x2="10.0908" y2="12.3668" gradientUnits="userSpaceOnUse">
<stop stop-color="#175EC7"/>
<stop offset="1" stop-color="#0BC4FF"/>
</linearGradient>
<linearGradient id="paint21_linear_168_15" x1="10.0908" y1="14.1335" x2="10.0908" y2="17.6668" gradientUnits="userSpaceOnUse">
<stop stop-color="#175EC7"/>
<stop offset="1" stop-color="#0BC4FF"/>
</linearGradient>
<linearGradient id="paint22_linear_168_15" x1="10.0908" y1="19.4335" x2="10.0908" y2="22.9668" gradientUnits="userSpaceOnUse">
<stop stop-color="#175EC7"/>
<stop offset="1" stop-color="#0BC4FF"/>
</linearGradient>
<linearGradient id="paint23_linear_168_15" x1="10.0908" y1="24.7336" x2="10.0908" y2="28.2669" gradientUnits="userSpaceOnUse">
<stop stop-color="#175EC7"/>
<stop offset="1" stop-color="#0BC4FF"/>
</linearGradient>
<linearGradient id="paint24_linear_168_15" x1="15.3907" y1="8.8335" x2="15.3907" y2="12.3668" gradientUnits="userSpaceOnUse">
<stop stop-color="#175EC7"/>
<stop offset="1" stop-color="#0BC4FF"/>
</linearGradient>
<linearGradient id="paint25_linear_168_15" x1="15.3907" y1="3.53345" x2="15.3907" y2="7.06675" gradientUnits="userSpaceOnUse">
<stop stop-color="#175EC7"/>
<stop offset="1" stop-color="#0BC4FF"/>
</linearGradient>
<linearGradient id="paint26_linear_168_15" x1="15.3907" y1="19.4335" x2="15.3907" y2="22.9668" gradientUnits="userSpaceOnUse">
<stop stop-color="#175EC7"/>
<stop offset="1" stop-color="#0BC4FF"/>
</linearGradient>
<linearGradient id="paint27_linear_168_15" x1="15.3907" y1="14.1335" x2="15.3907" y2="17.6668" gradientUnits="userSpaceOnUse">
<stop stop-color="#175EC7"/>
<stop offset="1" stop-color="#0BC4FF"/>
</linearGradient>
<linearGradient id="paint28_linear_168_15" x1="15.3907" y1="24.7336" x2="15.3907" y2="28.2669" gradientUnits="userSpaceOnUse">
<stop stop-color="#175EC7"/>
<stop offset="1" stop-color="#0BC4FF"/>
</linearGradient>
<linearGradient id="paint29_linear_168_15" x1="15.3907" y1="30.0335" x2="15.3907" y2="33.5668" gradientUnits="userSpaceOnUse">
<stop stop-color="#175EC7"/>
<stop offset="1" stop-color="#0BC4FF"/>
</linearGradient>
<linearGradient id="paint30_linear_168_15" x1="15.3907" y1="35.3336" x2="15.3907" y2="38.8669" gradientUnits="userSpaceOnUse">
<stop stop-color="#175EC7"/>
<stop offset="1" stop-color="#0BC4FF"/>
</linearGradient>
<linearGradient id="paint31_linear_168_15" x1="20.6908" y1="14.1335" x2="20.6908" y2="17.6668" gradientUnits="userSpaceOnUse">
<stop stop-color="#175EC7"/>
<stop offset="1" stop-color="#0BC4FF"/>
</linearGradient>
<linearGradient id="paint32_linear_168_15" x1="20.6908" y1="8.8335" x2="20.6908" y2="12.3668" gradientUnits="userSpaceOnUse">
<stop stop-color="#175EC7"/>
<stop offset="1" stop-color="#0BC4FF"/>
</linearGradient>
<linearGradient id="paint33_linear_168_15" x1="20.6908" y1="3.53345" x2="20.6908" y2="7.06675" gradientUnits="userSpaceOnUse">
<stop stop-color="#175EC7"/>
<stop offset="1" stop-color="#0BC4FF"/>
</linearGradient>
<linearGradient id="paint34_linear_168_15" x1="20.6908" y1="35.3336" x2="20.6908" y2="38.8669" gradientUnits="userSpaceOnUse">
<stop stop-color="#175EC7"/>
<stop offset="1" stop-color="#0BC4FF"/>
</linearGradient>
<linearGradient id="paint35_linear_168_15" x1="20.6908" y1="30.0335" x2="20.6908" y2="33.5668" gradientUnits="userSpaceOnUse">
<stop stop-color="#175EC7"/>
<stop offset="1" stop-color="#0BC4FF"/>
</linearGradient>
<linearGradient id="paint36_linear_168_15" x1="20.6908" y1="24.7336" x2="20.6908" y2="28.2669" gradientUnits="userSpaceOnUse">
<stop stop-color="#175EC7"/>
<stop offset="1" stop-color="#0BC4FF"/>
</linearGradient>
<linearGradient id="paint37_linear_168_15" x1="20.6908" y1="19.4335" x2="20.6908" y2="22.9668" gradientUnits="userSpaceOnUse">
<stop stop-color="#175EC7"/>
<stop offset="1" stop-color="#0BC4FF"/>
</linearGradient>
<linearGradient id="paint38_linear_168_15" x1="25.9908" y1="8.8335" x2="25.9908" y2="12.3668" gradientUnits="userSpaceOnUse">
<stop stop-color="#175EC7"/>
<stop offset="1" stop-color="#0BC4FF"/>
</linearGradient>
<linearGradient id="paint39_linear_168_15" x1="25.9908" y1="3.53345" x2="25.9908" y2="7.06675" gradientUnits="userSpaceOnUse">
<stop stop-color="#175EC7"/>
<stop offset="1" stop-color="#0BC4FF"/>
</linearGradient>
</defs>
</symbol><use xlink:href="#sprite-slide1" width="54" height="53" y="167"/><view id="sprite-slide1-view" viewBox="0 167 54 53"/><symbol fill="none" id="sprite-slide2" viewBox="0 0 54 53">
<path d="M51.9543 14.7532C51.9383 14.7418 51.9221 14.7306 51.906 14.7196L45.6925 10.4128H45.8745V3.78838C45.8745 3.26577 45.467 2.84204 44.9644 2.84204H40.4144C39.9119 2.84204 39.5044 3.26577 39.5044 3.78838V6.12112L30.9094 0.159163C30.6036 -0.0530543 30.205 -0.0530543 29.8993 0.159163L8.90262 14.7196C7.60586 15.5986 7.23981 17.4045 8.0851 18.753C8.93038 20.1015 10.6669 20.4822 11.9637 19.6032C11.9799 19.5922 11.9961 19.5809 12.012 19.5696L14.9342 17.5435V35.964H13.1141C13.1141 35.4414 12.7067 35.0177 12.2041 35.0177H4.92407C4.42151 35.0177 4.01406 35.4414 4.01406 35.964H0.374023V37.8567H4.01406V47.3201H0.374023V49.2128H4.01406C4.01406 49.7354 4.42151 50.1591 4.92407 50.1591H12.2041C12.7067 50.1591 13.1141 49.7354 13.1141 49.2128V48.8522L19.9083 51.7859C23.6123 53.3576 27.7527 53.405 31.489 51.9184L45.5469 46.3454C46.3794 46.0162 47.0493 45.3519 47.4051 44.5028C47.774 43.6417 47.7933 42.6621 47.4588 41.7859C47.1612 41.0027 46.5975 40.3605 45.8745 39.9812V17.5435L48.7965 19.5696C50.0755 20.4764 51.8192 20.1334 52.6912 18.8034C53.5632 17.4733 53.2334 15.66 51.9543 14.7532ZM11.2941 48.2664H5.83408V36.9103H11.2941V48.2664ZM41.3244 4.73472H44.0544V9.27717L41.3244 7.38448V4.73472ZM45.7407 43.7382C45.5794 44.1239 45.2758 44.4261 44.898 44.5767L30.8402 50.1506C27.5369 51.4661 23.8759 51.4249 20.6008 50.0352L13.1141 46.8015V37.8567H15.421C18.4385 37.8603 21.4141 38.591 24.1143 39.9916C25.0064 40.4534 25.9889 40.6944 26.9854 40.6957H34.0443C34.7982 40.7003 35.4058 41.3395 35.4014 42.1235C35.3978 42.7805 34.961 43.3491 34.3456 43.4978C34.2263 43.5092 34.109 43.5347 33.9879 43.5347H23.1242V45.4274H33.9879C34.007 45.4274 34.0252 45.4274 34.0443 45.4274C34.0625 45.4274 34.0798 45.4217 34.0989 45.4217C34.821 45.4093 35.5341 45.2526 36.1992 44.9599L43.8078 41.6004C44.1702 41.4395 44.5802 41.4395 44.9426 41.6004C45.3192 41.7668 45.6149 42.0851 45.7616 42.4824C45.9165 42.8871 45.909 43.3394 45.7407 43.7382ZM34.0443 38.803H26.9854C26.2714 38.8017 25.5673 38.6291 24.9279 38.2986C22.3772 36.9769 19.5982 36.1993 16.7542 36.0113V16.2801L30.4043 6.81668L44.0544 16.2801V39.6188C43.7254 39.6478 43.4023 39.7282 43.0962 39.8573L37.1957 42.4635C37.2129 42.3481 37.2241 42.2319 37.2294 42.1152C37.2294 40.2859 35.8034 38.803 34.0443 38.803ZM50.8158 18.045V18.0422C50.4965 18.2227 50.107 18.2033 49.8057 17.992L30.9094 4.89371C30.6036 4.68149 30.205 4.68149 29.8993 4.89371L11.0029 17.9949C10.5507 18.308 9.94003 18.1805 9.63894 17.7101C9.53144 17.5422 9.47411 17.345 9.47411 17.1432C9.47354 16.8009 9.63791 16.4811 9.91182 16.2914L30.4043 2.08497L50.8968 16.2943C51.1707 16.484 51.3351 16.8038 51.3345 17.146C51.3374 17.5231 51.137 17.8702 50.8158 18.045Z" fill="url(#paint0_linear_148_178)"/>
<path d="M9.47413 44.4811H7.65411V46.3738H9.47413V44.4811Z" fill="url(#paint1_linear_148_178)"/>
<path d="M33.017 25.8331C32.8072 25.1318 32.3309 24.55 31.6984 24.2228L29.9248 23.3001C29.5408 23.1007 29.385 22.6153 29.5768 22.216C29.7083 21.9423 29.9772 21.7692 30.2715 21.769H30.5372C30.9661 21.77 31.3134 22.1312 31.3144 22.5771V22.7153H33.1344V22.5771C33.1302 21.4013 32.3938 20.3639 31.3144 20.0135V18.9299H29.4944V20.0135C28.1295 20.455 27.3672 21.9634 27.7917 23.3828C28.0015 24.0842 28.4779 24.6659 29.1103 24.9931L30.8839 25.9158C31.268 26.1153 31.4237 26.6006 31.2319 27C31.1004 27.2737 30.8315 27.4468 30.5372 27.447H30.2715C29.8427 27.4459 29.4954 27.0848 29.4944 26.6388V26.5007H27.6743V26.6388C27.6785 27.8147 28.415 28.8521 29.4944 29.2025V30.286H31.3144V29.2025C32.6793 28.761 33.4415 27.2525 33.017 25.8331Z" fill="url(#paint2_linear_148_178)"/>
<path d="M30.4043 15.1445C25.3807 15.1502 21.3098 19.3838 21.3042 24.6079C21.3042 29.8345 25.3784 34.0714 30.4043 34.0714C35.4302 34.0714 39.5044 29.8345 39.5044 24.6079C39.5044 19.3815 35.4302 15.1445 30.4043 15.1445ZM30.4043 32.1787C26.3836 32.1787 23.1242 28.7891 23.1242 24.6079C23.1242 20.4268 26.3836 17.0372 30.4043 17.0372C34.4231 17.0419 37.6798 20.4287 37.6844 24.6079C37.6844 28.7892 34.4249 32.1787 30.4043 32.1787Z" fill="url(#paint3_linear_148_178)"/>
<path d="M35.8644 23.6616H34.0444V25.5542H35.8644V23.6616Z" fill="url(#paint4_linear_148_178)"/>
<path d="M26.7643 23.6616H24.9443V25.5542H26.7643V23.6616Z" fill="url(#paint5_linear_148_178)"/>
<defs>
<linearGradient id="paint0_linear_148_178" x1="26.7763" y1="0" x2="26.7763" y2="53" gradientUnits="userSpaceOnUse">
<stop stop-color="#175EC7"/>
<stop offset="1" stop-color="#0BC4FF"/>
</linearGradient>
<linearGradient id="paint1_linear_148_178" x1="8.56412" y1="44.4811" x2="8.56412" y2="46.3738" gradientUnits="userSpaceOnUse">
<stop stop-color="#175EC7"/>
<stop offset="1" stop-color="#0BC4FF"/>
</linearGradient>
<linearGradient id="paint2_linear_148_178" x1="30.4044" y1="18.9299" x2="30.4044" y2="30.286" gradientUnits="userSpaceOnUse">
<stop stop-color="#175EC7"/>
<stop offset="1" stop-color="#0BC4FF"/>
</linearGradient>
<linearGradient id="paint3_linear_148_178" x1="30.4043" y1="15.1445" x2="30.4043" y2="34.0714" gradientUnits="userSpaceOnUse">
<stop stop-color="#175EC7"/>
<stop offset="1" stop-color="#0BC4FF"/>
</linearGradient>
<linearGradient id="paint4_linear_148_178" x1="34.9544" y1="23.6616" x2="34.9544" y2="25.5542" gradientUnits="userSpaceOnUse">
<stop stop-color="#175EC7"/>
<stop offset="1" stop-color="#0BC4FF"/>
</linearGradient>
<linearGradient id="paint5_linear_148_178" x1="25.8543" y1="23.6616" x2="25.8543" y2="25.5542" gradientUnits="userSpaceOnUse">
<stop stop-color="#175EC7"/>
<stop offset="1" stop-color="#0BC4FF"/>
</linearGradient>
</defs>
</symbol><use xlink:href="#sprite-slide2" width="54" height="53" y="220"/><view id="sprite-slide2-view" viewBox="0 220 54 53"/><symbol fill="none" id="sprite-slide3" viewBox="0 0 44 53">
<path d="M5.97406 44.1667H4.2074V45.9334H5.97406V44.1667Z" fill="url(#paint0_linear_148_194)"/>
<path d="M7.74079 25.6166H5.97412V27.3833H7.74079V25.6166Z" fill="url(#paint1_linear_148_194)"/>
<path d="M16.574 3.53333H14.8074V5.29999H16.574V3.53333Z" fill="url(#paint2_linear_148_194)"/>
<path d="M20.1075 3.53333H18.3408V5.29999H20.1075V3.53333Z" fill="url(#paint3_linear_148_194)"/>
<path d="M43.0741 30.5033V26.5C43.0741 24.7925 41.6899 23.4083 39.9824 23.4083C39.4093 23.4104 38.8484 23.5733 38.3633 23.8783C37.6686 22.3419 35.8601 21.6597 34.3239 22.3543C34.2959 22.3669 34.2682 22.3799 34.2407 22.3934V4.41667C34.2379 1.97867 32.2621 0.00287083 29.8241 0H5.09074C2.65274 0.00287083 0.676943 1.97867 0.674072 4.41667V48.5833C0.676943 51.0213 2.65274 52.9971 5.09074 53H27.1741V49.4667H39.5407V53H41.3074V49.4667H42.1907C42.6786 49.4667 43.0741 49.0712 43.0741 48.5833V41.5167C43.0741 41.0288 42.6786 40.6333 42.1907 40.6333H41.3074V38.1883C42.4665 35.792 43.0703 33.1652 43.0741 30.5033ZM2.44074 4.41667C2.44074 2.95309 3.62717 1.76667 5.09074 1.76667H29.8241C31.2876 1.76667 32.4741 2.95309 32.4741 4.41667V7.06667H2.44074V4.41667ZM25.4074 51.2333H5.09074C3.62717 51.2333 2.44074 50.0469 2.44074 48.5833V8.83333H32.4741V21.0684C31.6391 20.655 30.659 20.655 29.8241 21.0684V16.3417C29.8241 14.6342 28.4399 13.25 26.7324 13.25C25.0249 13.25 23.6407 14.6342 23.6407 16.3417V26.5795C20.7278 27.0989 18.7876 29.8813 19.3069 32.7942C19.5837 34.3464 20.5302 35.698 21.8944 36.4887L24.4561 37.9506C25.0446 38.2892 25.4074 38.9165 25.4074 39.5954V40.6333H24.5241C24.0363 40.6333 23.6407 41.0288 23.6407 41.5167V44.1667H7.74074V45.9333H23.6407V48.5833C23.6407 49.0712 24.0363 49.4667 24.5241 49.4667H25.4074V51.2333ZM41.3074 47.7H25.4074V42.4H41.3074V47.7ZM39.6291 37.5885C39.5694 37.7115 39.5392 37.8466 39.5407 37.9833V40.6333H27.1741V39.5954C27.1731 38.2813 26.4692 37.0683 25.3288 36.4154L22.7671 34.9526C21.6478 34.3009 20.9683 33.095 20.9907 31.8C20.9968 30.1938 22.0855 28.7937 23.6407 28.3921V31.8H25.4074V16.3417C25.4074 15.6099 26.0007 15.0167 26.7324 15.0167C27.4641 15.0167 28.0574 15.6099 28.0574 16.3417V28.2667H29.8241V23.85C29.8241 23.1183 30.4173 22.525 31.1491 22.525C31.8808 22.525 32.4741 23.1183 32.4741 23.85V28.2667H34.2407V25.175C34.2407 24.4433 34.834 23.85 35.5657 23.85C36.2975 23.85 36.8907 24.4433 36.8907 25.175V28.2667H38.6574V26.5C38.6574 25.7683 39.2507 25.175 39.9824 25.175C40.7141 25.175 41.3074 25.7683 41.3074 26.5V30.4997C41.3031 32.9606 40.7286 35.387 39.6291 37.5885Z" fill="url(#paint4_linear_148_194)"/>
<path d="M14.6935 17.9269C14.4898 17.2723 14.0274 16.7292 13.4135 16.4238L11.6919 15.5626C11.3191 15.3764 11.168 14.9234 11.3541 14.5506C11.4818 14.2951 11.7428 14.1336 12.0284 14.1333H12.2864C12.7026 14.1343 13.0397 14.4714 13.0407 14.8877V15.0167H14.8074V14.8877C14.8033 13.7902 14.0885 12.8218 13.0407 12.4948V11.4833H11.2741V12.4948C9.94918 12.9068 9.20928 14.3149 9.62136 15.6398C9.82496 16.2944 10.2874 16.8374 10.9013 17.1429L12.6229 18.0041C12.9957 18.1903 13.1468 18.6433 12.9607 19.0161C12.833 19.2716 12.572 19.4331 12.2864 19.4333H12.0284C11.6122 19.4323 11.2751 19.0952 11.2741 18.679V18.55H9.50741V18.679C9.51149 19.7765 10.2263 20.7449 11.2741 21.0719V22.0833H13.0407V21.0719C14.3656 20.6598 15.1055 19.2518 14.6935 17.9269Z" fill="url(#paint5_linear_148_194)"/>
<path d="M16.5742 29.15H5.09082V30.9167H16.5742V29.15Z" fill="url(#paint6_linear_148_194)"/>
<path d="M16.5742 32.6833H5.09082V34.45H16.5742V32.6833Z" fill="url(#paint7_linear_148_194)"/>
<path d="M16.5742 36.2167H5.09082V37.9833H16.5742V36.2167Z" fill="url(#paint8_linear_148_194)"/>
<path d="M16.574 25.6166H9.50732V27.3833H16.574V25.6166Z" fill="url(#paint9_linear_148_194)"/>
<path d="M18.3406 47.7H16.574V49.4667H18.3406V47.7Z" fill="url(#paint10_linear_148_194)"/>
<path d="M39.5408 44.1667H37.7742V45.9334H39.5408V44.1667Z" fill="url(#paint11_linear_148_194)"/>
<defs>
<linearGradient id="paint0_linear_148_194" x1="5.09073" y1="44.1667" x2="5.09073" y2="45.9334" gradientUnits="userSpaceOnUse">
<stop stop-color="#175EC7"/>
<stop offset="1" stop-color="#0BC4FF"/>
</linearGradient>
<linearGradient id="paint1_linear_148_194" x1="6.85745" y1="25.6166" x2="6.85745" y2="27.3833" gradientUnits="userSpaceOnUse">
<stop stop-color="#175EC7"/>
<stop offset="1" stop-color="#0BC4FF"/>
</linearGradient>
<linearGradient id="paint2_linear_148_194" x1="15.6907" y1="3.53333" x2="15.6907" y2="5.29999" gradientUnits="userSpaceOnUse">
<stop stop-color="#175EC7"/>
<stop offset="1" stop-color="#0BC4FF"/>
</linearGradient>
<linearGradient id="paint3_linear_148_194" x1="19.2242" y1="3.53333" x2="19.2242" y2="5.29999" gradientUnits="userSpaceOnUse">
<stop stop-color="#175EC7"/>
<stop offset="1" stop-color="#0BC4FF"/>
</linearGradient>
<linearGradient id="paint4_linear_148_194" x1="21.8741" y1="0" x2="21.8741" y2="53" gradientUnits="userSpaceOnUse">
<stop stop-color="#175EC7"/>
<stop offset="1" stop-color="#0BC4FF"/>
</linearGradient>
<linearGradient id="paint5_linear_148_194" x1="12.1574" y1="11.4833" x2="12.1574" y2="22.0833" gradientUnits="userSpaceOnUse">
<stop stop-color="#175EC7"/>
<stop offset="1" stop-color="#0BC4FF"/>
</linearGradient>
<linearGradient id="paint6_linear_148_194" x1="10.8325" y1="29.15" x2="10.8325" y2="30.9167" gradientUnits="userSpaceOnUse">
<stop stop-color="#175EC7"/>
<stop offset="1" stop-color="#0BC4FF"/>
</linearGradient>
<linearGradient id="paint7_linear_148_194" x1="10.8325" y1="32.6833" x2="10.8325" y2="34.45" gradientUnits="userSpaceOnUse">
<stop stop-color="#175EC7"/>
<stop offset="1" stop-color="#0BC4FF"/>
</linearGradient>
<linearGradient id="paint8_linear_148_194" x1="10.8325" y1="36.2167" x2="10.8325" y2="37.9833" gradientUnits="userSpaceOnUse">
<stop stop-color="#175EC7"/>
<stop offset="1" stop-color="#0BC4FF"/>
</linearGradient>
<linearGradient id="paint9_linear_148_194" x1="13.0407" y1="25.6166" x2="13.0407" y2="27.3833" gradientUnits="userSpaceOnUse">
<stop stop-color="#175EC7"/>
<stop offset="1" stop-color="#0BC4FF"/>
</linearGradient>
<linearGradient id="paint10_linear_148_194" x1="17.4573" y1="47.7" x2="17.4573" y2="49.4667" gradientUnits="userSpaceOnUse">
<stop stop-color="#175EC7"/>
<stop offset="1" stop-color="#0BC4FF"/>
</linearGradient>
<linearGradient id="paint11_linear_148_194" x1="38.6575" y1="44.1667" x2="38.6575" y2="45.9334" gradientUnits="userSpaceOnUse">
<stop stop-color="#175EC7"/>
<stop offset="1" stop-color="#0BC4FF"/>
</linearGradient>
</defs>
</symbol><use xlink:href="#sprite-slide3" width="44" height="53" y="273"/><view id="sprite-slide3-view" viewBox="0 273 44 53"/></svg>